<svg version="1.1" xmlns="http://www.w3.org/2000/svg"  viewBox="0 0 256 256" width="256" height="256"><path d="M0 0 C84.48 0 168.96 0 256 0 C256 84.48 256 168.96 256 256 C171.52 256 87.04 256 0 256 C0 171.52 0 87.04 0 0 Z " transform="translate(0,0)" style="fill: #E4DEE8;"></path><path d="M0 0 C84.48 0 168.96 0 256 0 C256 84.48 256 168.96 256 256 C171.52 256 87.04 256 0 256 C0 171.52 0 87.04 0 0 Z M50.80078125 52.86328125 C29.99064469 77.5555691 22.14662631 104.86171153 24 137 C26.41063841 158.39813597 35.4845697 179.11047561 50 195 C51.04607422 196.16789062 51.04607422 196.16789062 52.11328125 197.359375 C67.08169302 213.2308171 91.08508577 225.93497105 113.14355469 227.17700195 C133.61938388 227.53262284 150.84245882 226.6343499 169.828125 218.07421875 C173.30250069 216.89755211 174.62766907 216.62829626 178 218 C180.00371719 219.65923859 181.79756188 221.2930288 183.625 223.125 C191.42212271 230.61833871 199.49139501 237.39296767 210.72265625 237.2109375 C215.59541469 236.75960138 218.68585024 234.5809493 221.8125 231 C225.05738916 226.54986629 225.28031722 223.41946633 225 218 C223.23069905 209.93985121 213.73565361 205.29937919 207.453125 200.9296875 C205.1453418 199.11432938 203.61954959 197.42932438 202 195 C202.53367188 194.42636719 203.06734375 193.85273438 203.6171875 193.26171875 C215.01305176 180.26885621 222.23785731 164.79759913 226 148 C226.24363281 146.9171875 226.48726562 145.834375 226.73828125 144.71875 C231.84655991 117.1965956 225.91999768 87.55447318 210.24609375 64.41015625 C208.57046507 62.19801537 206.81893773 60.09547858 205 58 C204.34644531 57.20335937 203.69289062 56.40671875 203.01953125 55.5859375 C193.25052559 44.09089623 181.4552396 36.47761951 168 30 C166.99195313 29.505 165.98390625 29.01 164.9453125 28.5 C127.59671647 11.49576116 78.5178076 23.35805966 50.80078125 52.86328125 Z " transform="translate(0,0)" style="fill: #AE90BC;"></path><path d="M0 0 C1.42119141 0.67095703 1.42119141 0.67095703 2.87109375 1.35546875 C17.4962169 8.7573289 26.46971421 20.51563317 32.02734375 35.734375 C34.2219072 43.10246755 35.36470267 49.92624059 35.3125 57.625 C35.30512817 58.92824219 35.30512817 58.92824219 35.29760742 60.2578125 C35.01657023 75.93824674 30.77615509 89.96114101 22 103 C18.21205797 101.24585235 15.17133151 98.90609326 11.90234375 96.33984375 C7.4386047 93.19597826 2.23810576 93.4198042 -3 94 C-7.84063945 96.33067825 -10.56352878 99.22076799 -13 104 C-13.83155372 110.65242972 -11.7761616 114.66561618 -7.8125 119.875 C-7.214375 120.57625 -6.61625 121.2775 -6 122 C-11.77541663 123.97228514 -16.98011608 124.35112882 -23.0625 124.3125 C-23.9891748 124.30686035 -24.91584961 124.3012207 -25.87060547 124.29541016 C-43.44491386 123.98730303 -56.6276213 118.71076855 -69 106 C-82.87944603 90.82189235 -85.94539751 71.34140462 -85.17919922 51.49267578 C-84.00757626 35.19530465 -77.49351889 22.51323333 -66 11 C-65.36191406 10.3503125 -64.72382812 9.700625 -64.06640625 9.03125 C-48.45444407 -5.76927964 -19.24976206 -9.61000486 0 0 Z " transform="translate(151,65)" style="fill: #AE90BB;"></path><path d="M0 0 C0.33 0 0.66 0 1 0 C1 17.49 1 34.98 1 53 C-16.49 53 -33.98 53 -52 53 C-52 52.67 -52 52.34 -52 52 C-51.30777344 51.87625 -50.61554688 51.7525 -49.90234375 51.625 C-33.77042312 48.22433162 -19.33958974 39.443706 -10.125 25.5625 C-5.29855987 17.35639436 -1.69323913 9.38978063 0 0 Z " transform="translate(255,203)" style="fill: #000000;"></path><path d="M0 0 C0.33 0 0.66 0 1 0 C1.12375 0.69222656 1.2475 1.38445312 1.375 2.09765625 C4.77566838 18.22957688 13.556294 32.66041026 27.4375 41.875 C35.64360564 46.70144013 43.61021937 50.30676087 53 52 C53 52.33 53 52.66 53 53 C35.51 53 18.02 53 0 53 C0 35.51 0 18.02 0 0 Z " transform="translate(0,203)" style="fill: #000000;"></path><path d="M0 0 C17.49 0 34.98 0 53 0 C53 17.49 53 34.98 53 53 C52.67 53 52.34 53 52 53 C51.87625 52.30777344 51.7525 51.61554687 51.625 50.90234375 C48.22433162 34.77042312 39.443706 20.33958974 25.5625 11.125 C17.35639436 6.29855987 9.38978063 2.69323913 0 1 C0 0.67 0 0.34 0 0 Z " transform="translate(203,0)" style="fill: #000000;"></path><path d="M0 0 C17.49 0 34.98 0 53 0 C53 0.33 53 0.66 53 1 C52.30777344 1.12375 51.61554687 1.2475 50.90234375 1.375 C34.77042312 4.77566838 20.33958974 13.556294 11.125 27.4375 C6.29855987 35.64360564 2.69323913 43.61021937 1 53 C0.67 53 0.34 53 0 53 C0 35.51 0 18.02 0 0 Z " transform="translate(0,0)" style="fill: #000000;"></path><path d="M0 0 C3.71317907 1.14770989 5.2692056 1.85342428 7.4375 5.0625 C8 8 8 8 7.4375 11.0625 C4.80538535 14.73150829 3.34895674 15.90259531 -1.125 16.6875 C-4.5625 16.0625 -4.5625 16.0625 -7 13.9375 C-8.85305839 10.52787255 -9.27838388 8.88054737 -8.5625 5.0625 C-5.88937913 1.25532785 -4.71546409 0.08272744 0 0 Z " transform="translate(158.5625,114.9375)" style="fill: #674C76;"></path><path d="M0 0 C3.71317907 1.14770989 5.2692056 1.85342428 7.4375 5.0625 C8 8 8 8 7.4375 11.0625 C4.80538535 14.73150829 3.34895674 15.90259531 -1.125 16.6875 C-4.5625 16.0625 -4.5625 16.0625 -7 13.9375 C-8.85305839 10.52787255 -9.27838388 8.88054737 -8.5625 5.0625 C-5.88937913 1.25532785 -4.71546409 0.08272744 0 0 Z " transform="translate(94.5625,114.9375)" style="fill: #674D76;"></path><path d="M0 0 C0.99 0 1.98 0 3 0 C3.66 1.32 4.32 2.64 5 4 C6.65 4 8.3 4 10 4 C10.66 2.68 11.32 1.36 12 0 C13.32 0 14.64 0 16 0 C16.66 1.32 17.32 2.64 18 4 C19.65 4 21.3 4 23 4 C23.66 2.68 24.32 1.36 25 0 C25.99 0 26.98 0 28 0 C28.35430394 3.18873549 28.25953249 4.61589191 26.4375 7.3125 C23.11945125 9.60961067 20.96826097 9.34809307 17 9 C15.33333333 8.66666667 13.66666667 8.33333333 12 8 C11.01 8.495 11.01 8.495 10 9 C7.1875 9.375 7.1875 9.375 4 9 C1.0625 6.75 1.0625 6.75 -1 4 C-0.8125 1.6875 -0.8125 1.6875 0 0 Z " transform="translate(112,128)" style="fill: #6B527A;"></path></svg>